<svg width="20" height="20" viewBox="0 0 20 20" fill="none" xmlns="http://www.w3.org/2000/svg">
<path d="M4.16732 15H2.50065C2.05862 15 1.6347 14.8244 1.32214 14.5118C1.00958 14.1993 0.833984 13.7754 0.833984 13.3333V6.66667C0.833984 6.22464 1.00958 5.80072 1.32214 5.48816C1.6347 5.17559 2.05862 5 2.50065 5H5.15898M12.5007 5H14.1673C14.6093 5 15.0333 5.17559 15.3458 5.48816C15.6584 5.80072 15.834 6.22464 15.834 6.66667V13.3333C15.834 13.7754 15.6584 14.1993 15.3458 14.5118C15.0333 14.8244 14.6093 15 14.1673 15H11.509M19.1673 10.8333V9.16667M9.16732 5L5.83398 10H10.834L7.50065 15" stroke="#735EFF" stroke-width="1.6" stroke-linecap="round" stroke-linejoin="round"/>
</svg>
