<svg width="16" height="16" viewBox="0 0 16 16" fill="none" xmlns="http://www.w3.org/2000/svg">
<path d="M7.99935 8.00001C8.36602 8.00001 8.6799 7.86945 8.94102 7.60834C9.20213 7.34723 9.33268 7.03334 9.33268 6.66668C9.33268 6.30001 9.20213 5.98612 8.94102 5.72501C8.6799 5.4639 8.36602 5.33334 7.99935 5.33334C7.63268 5.33334 7.31879 5.4639 7.05768 5.72501C6.79657 5.98612 6.66602 6.30001 6.66602 6.66668C6.66602 7.03334 6.79657 7.34723 7.05768 7.60834C7.31879 7.86945 7.63268 8.00001 7.99935 8.00001ZM7.99935 12.9C9.3549 11.6556 10.3605 10.525 11.016 9.50834C11.6716 8.49168 11.9993 7.5889 11.9993 6.80001C11.9993 5.5889 11.6132 4.59723 10.841 3.82501C10.0688 3.05279 9.12157 2.66668 7.99935 2.66668C6.87713 2.66668 5.9299 3.05279 5.15768 3.82501C4.38546 4.59723 3.99935 5.5889 3.99935 6.80001C3.99935 7.5889 4.32713 8.49168 4.98268 9.50834C5.63824 10.525 6.64379 11.6556 7.99935 12.9ZM7.99935 14.6667C6.21046 13.1445 4.87435 11.7306 3.99102 10.425C3.10768 9.11945 2.66602 7.91112 2.66602 6.80001C2.66602 5.13334 3.20213 3.80557 4.27435 2.81668C5.34657 1.82779 6.58824 1.33334 7.99935 1.33334C9.41046 1.33334 10.6521 1.82779 11.7243 2.81668C12.7966 3.80557 13.3327 5.13334 13.3327 6.80001C13.3327 7.91112 12.891 9.11945 12.0077 10.425C11.1243 11.7306 9.78824 13.1445 7.99935 14.6667Z" fill="#735EFF"/>
</svg>
